<?xml version="1.0" standalone="no"?>
<!DOCTYPE svg PUBLIC "-//W3C//DTD SVG 20010904//EN"
 "http://www.w3.org/TR/2001/REC-SVG-20010904/DTD/svg10.dtd">
<svg version="1.0" xmlns="http://www.w3.org/2000/svg"
 width="500.000000pt" height="500.000000pt" viewBox="0 0 500.000000 500.000000"
 preserveAspectRatio="xMidYMid meet">

<g transform="translate(5.000000,502.000000) scale(0.100000,-0.100000)"
fill="#FFFFFF" stroke="#FFFFFF">
<path d="M1343 4333 c-18 -21 -33 -48 -33 -62 0 -13 -11 -34 -25 -47 -14 -13
-25 -34 -25 -48 0 -15 -8 -30 -19 -35 -10 -6 -22 -22 -25 -37 -8 -30 -43 -83
-68 -102 -10 -7 -18 -26 -18 -41 0 -17 -10 -36 -25 -49 -16 -14 -25 -32 -25
-52 0 -19 -7 -33 -20 -40 -11 -6 -23 -23 -26 -38 -4 -15 -15 -35 -25 -45 -11
-10 -19 -23 -19 -30 0 -7 -9 -18 -20 -25 -12 -7 -20 -23 -20 -41 0 -20 -8 -34
-25 -45 -17 -11 -25 -26 -25 -46 0 -17 -8 -34 -20 -43 -11 -8 -23 -28 -26 -46
-4 -17 -24 -50 -44 -73 -21 -22 -41 -54 -44 -71 -3 -17 -15 -36 -26 -44 -12
-8 -20 -26 -20 -42 0 -17 -10 -36 -25 -49 -14 -12 -25 -33 -25 -46 0 -13 -17
-42 -40 -67 -21 -24 -42 -55 -45 -70 -3 -15 -15 -35 -26 -45 -10 -9 -19 -29
-19 -44 0 -18 -8 -33 -25 -44 -17 -11 -25 -26 -25 -46 0 -19 -7 -34 -20 -42
-11 -7 -20 -18 -20 -24 0 -6 -9 -19 -19 -28 -11 -10 -23 -31 -26 -46 -3 -15
-15 -36 -26 -46 -10 -9 -19 -29 -19 -44 0 -18 -8 -33 -25 -44 -22 -14 -25 -24
-25 -71 0 -47 3 -57 25 -71 18 -12 25 -25 25 -48 0 -20 7 -35 20 -44 13 -8 20
-23 20 -42 0 -18 8 -34 21 -43 20 -15 47 -57 69 -110 7 -15 21 -32 31 -38 12
-6 19 -20 19 -39 0 -19 7 -34 20 -42 12 -8 20 -24 20 -41 0 -17 10 -37 25 -51
14 -13 25 -29 25 -36 0 -18 60 -108 76 -114 8 -3 14 -19 14 -35 0 -18 8 -35
19 -43 10 -7 22 -29 26 -48 4 -19 16 -41 26 -48 11 -7 19 -24 19 -38 0 -13 11
-34 25 -46 14 -12 25 -27 25 -33 0 -6 9 -18 20 -28 11 -9 20 -26 20 -37 0 -11
11 -30 25 -42 16 -13 25 -32 25 -50 0 -17 8 -33 20 -40 12 -8 20 -24 20 -39 0
-14 12 -39 28 -56 44 -49 62 -76 62 -93 0 -9 11 -27 25 -40 15 -14 25 -35 25
-51 0 -18 7 -32 20 -39 11 -6 22 -26 26 -46 3 -19 15 -41 25 -47 11 -7 19 -17
19 -23 0 -6 9 -19 20 -29 11 -10 20 -26 20 -36 0 -10 11 -31 25 -47 14 -17 25
-38 25 -47 0 -10 17 -35 39 -56 l39 -39 1024 0 c982 0 1026 1 1049 19 13 10
38 22 54 28 23 7 31 17 33 38 2 16 23 52 48 80 24 29 44 61 44 72 0 11 11 29
25 41 15 14 25 32 25 50 0 16 8 32 19 39 10 6 21 26 25 44 3 17 16 42 29 55
45 47 54 60 61 89 4 16 16 35 27 43 11 7 19 25 19 41 0 17 10 36 25 49 14 12
25 33 25 46 0 14 12 38 26 53 14 15 31 35 39 43 7 8 16 27 20 42 4 15 15 34
26 44 10 9 19 29 19 44 0 18 8 33 25 44 17 11 25 26 25 46 0 17 8 34 18 42 18
13 36 40 67 106 9 18 22 35 29 38 8 3 16 22 20 42 3 22 14 42 26 50 13 8 20
23 20 42 0 19 6 33 16 37 9 3 25 24 35 47 29 61 47 89 62 101 8 6 17 24 21 42
4 17 16 39 27 49 10 9 19 29 19 44 0 18 8 33 25 44 15 10 25 26 25 40 0 12 9
31 20 41 16 15 20 31 20 82 0 50 -5 71 -20 90 -11 14 -20 32 -20 39 0 7 -11
21 -25 30 -18 12 -25 25 -25 50 0 23 -6 37 -20 44 -13 7 -20 21 -20 39 0 17
-10 36 -25 49 -14 12 -25 31 -25 42 0 11 -9 28 -20 37 -11 10 -20 23 -20 30 0
7 -11 20 -25 29 -17 11 -25 25 -25 45 0 17 -9 37 -20 46 -11 10 -20 28 -20 41
0 12 -11 33 -25 46 -14 13 -25 32 -25 43 0 19 -22 50 -70 99 -11 12 -20 33
-20 47 0 17 -9 32 -25 43 -18 12 -25 25 -25 50 0 22 -6 37 -19 43 -10 6 -21
25 -25 42 -3 18 -15 38 -26 46 -11 8 -20 20 -20 28 0 8 -9 19 -20 25 -13 7
-20 21 -20 40 0 20 -8 35 -25 46 -17 11 -25 26 -25 44 0 15 -8 35 -19 44 -10
9 -21 30 -24 46 -4 15 -24 47 -47 70 -25 25 -40 50 -40 65 0 14 -11 35 -25 47
-16 13 -25 32 -25 50 0 18 -8 33 -25 44 -16 11 -25 26 -25 43 0 16 -14 42 -39
69 -21 23 -42 54 -46 69 -3 15 -21 42 -38 60 l-32 33 -1055 0 -1055 -1 -32
-36z m1780 -128 c1 -6 -24 -11 -55 -13 -42 -2 -61 -8 -70 -21 -9 -12 -33 -20
-73 -25 -39 -4 -65 -13 -77 -26 -13 -14 -32 -20 -62 -20 -28 0 -52 -7 -69 -20
-14 -11 -47 -23 -74 -26 -26 -4 -62 -15 -79 -25 -17 -11 -47 -19 -65 -19 -19
0 -52 -11 -74 -25 -25 -15 -55 -24 -82 -25 -25 0 -48 -7 -59 -17 -9 -10 -41
-20 -76 -24 -44 -5 -64 -13 -74 -28 -12 -16 -26 -21 -63 -21 -34 0 -53 -5 -65
-19 -11 -12 -35 -20 -67 -23 -32 -3 -58 -13 -73 -27 -20 -19 -33 -22 -97 -19
l-73 3 -7 34 c-4 19 -14 38 -23 43 -9 5 -16 22 -16 39 0 19 -9 38 -25 53 -15
14 -25 34 -25 50 0 15 -10 35 -25 48 -15 13 -25 32 -25 48 0 15 -9 35 -20 45
-20 18 -27 55 -13 68 11 12 1603 3 1606 -8z m319 -88 c4 -7 8 -50 8 -96 0 -66
4 -89 18 -104 13 -15 18 -43 22 -131 4 -96 8 -115 28 -140 19 -25 22 -41 22
-116 0 -72 3 -92 20 -113 17 -21 20 -40 20 -115 0 -82 2 -93 25 -120 23 -28
25 -37 25 -145 0 -97 3 -118 19 -138 15 -20 20 -45 23 -131 3 -94 6 -109 26
-130 16 -18 22 -36 22 -71 0 -53 -15 -69 -36 -38 -10 13 -26 21 -44 21 -19 0
-33 7 -40 20 -6 11 -25 27 -43 35 -50 24 -76 40 -101 64 -12 11 -33 21 -45 21
-13 0 -34 10 -47 23 -46 44 -64 57 -88 63 -13 3 -33 17 -45 30 -11 13 -29 24
-39 24 -10 0 -27 7 -37 15 -11 8 -37 28 -59 45 -21 16 -49 30 -61 30 -13 0
-26 7 -29 15 -3 9 -18 21 -33 28 -49 22 -101 57 -107 72 -3 9 -18 15 -34 15
-18 0 -41 11 -59 28 -50 45 -76 62 -95 62 -10 0 -25 11 -33 24 -9 13 -29 26
-45 30 -16 3 -37 12 -47 21 -63 55 -78 65 -98 65 -12 0 -31 11 -43 25 -12 14
-30 25 -40 25 -11 0 -27 9 -37 20 -10 11 -23 20 -28 20 -5 0 -20 11 -33 25
-13 14 -34 25 -49 25 -14 0 -28 7 -32 15 -3 9 -20 23 -37 31 -59 29 -97 52
-109 67 -7 8 -25 18 -42 22 -16 3 -37 13 -45 21 -8 8 -30 26 -47 40 -47 37
-43 54 11 54 33 0 52 7 74 25 22 18 42 25 74 25 32 0 50 6 63 20 13 15 31 20
67 20 39 0 53 5 72 25 19 20 33 25 74 25 40 0 54 4 61 19 8 14 25 20 68 23 44
4 60 10 71 26 12 18 24 22 67 22 38 0 56 5 69 19 11 12 36 20 73 24 38 4 61
12 75 26 13 15 31 21 63 21 32 0 50 6 63 21 14 14 37 22 76 26 41 4 60 11 67
24 7 15 21 19 58 19 34 0 56 6 76 22 18 14 47 23 82 26 29 2 56 8 59 13 6 10
56 -8 66 -24z m-1996 -97 c4 -29 14 -56 25 -66 11 -9 19 -30 19 -46 0 -18 9
-36 25 -50 16 -13 25 -32 25 -50 0 -17 8 -33 20 -40 15 -10 20 -24 20 -61 l0
-47 -195 -193 c-241 -237 -348 -338 -400 -376 -22 -16 -104 -93 -183 -170 -79
-78 -147 -141 -153 -141 -5 0 -14 -12 -20 -27 -7 -19 -13 -23 -21 -15 -17 17
-2 53 42 102 23 26 40 54 40 68 0 14 11 33 25 44 16 12 25 30 25 46 0 16 8 32
19 39 10 6 21 23 25 37 8 31 52 98 72 109 8 4 14 20 14 36 0 17 10 36 25 49
14 12 25 33 25 46 0 14 4 27 9 31 14 8 68 89 75 113 4 11 15 27 26 37 11 10
20 30 20 45 0 18 8 33 25 44 17 12 25 25 25 47 0 18 6 32 16 36 9 3 25 24 35
47 29 61 47 89 62 101 8 6 18 26 22 45 4 19 16 41 26 48 11 7 19 25 19 39 0
15 11 36 25 49 14 13 25 34 25 48 0 14 6 29 14 33 7 4 18 18 25 31 l12 23 29
-31 c21 -22 31 -46 36 -80z m2177 -146 c-4 -12 -8 -13 -14 -3 -9 15 -2 32 11
24 5 -3 6 -13 3 -21z m47 -54 c0 -20 9 -38 25 -52 15 -13 25 -32 25 -49 0 -16
8 -34 19 -41 11 -8 23 -27 26 -43 4 -17 13 -35 20 -40 7 -6 20 -26 29 -45 32
-67 49 -95 68 -108 10 -7 18 -25 18 -41 0 -20 8 -34 25 -45 17 -11 25 -26 25
-46 0 -19 7 -33 20 -40 11 -6 20 -21 20 -35 0 -13 11 -37 25 -53 14 -17 25
-34 25 -39 0 -5 9 -16 20 -26 11 -9 20 -26 20 -37 0 -11 11 -30 25 -42 15 -13
25 -32 25 -49 0 -17 7 -32 19 -38 10 -6 22 -26 25 -46 4 -19 15 -39 26 -45 11
-6 20 -18 20 -26 0 -21 59 -111 76 -118 8 -3 14 -19 14 -36 0 -20 9 -38 25
-52 32 -28 32 -58 -2 -90 -25 -23 -38 -27 -113 -30 -70 -2 -91 -7 -115 -26
-28 -21 -40 -23 -130 -20 l-100 3 -5 47 c-3 26 -13 55 -23 66 -14 15 -17 38
-17 120 0 91 -2 104 -22 124 -18 18 -22 37 -27 124 -4 74 -10 107 -22 120 -13
15 -18 45 -21 126 -3 95 -6 110 -26 128 -20 19 -22 30 -22 139 0 100 -3 122
-19 142 -25 32 -38 249 -15 249 9 0 14 -11 14 -30z m-1829 -330 c24 -22 52
-40 62 -40 10 0 28 -11 40 -23 12 -13 34 -27 50 -31 15 -3 35 -13 45 -22 63
-54 77 -64 96 -64 11 0 29 -9 41 -20 26 -27 93 -70 107 -70 6 0 21 -11 34 -25
13 -14 33 -25 45 -25 12 0 32 -10 44 -22 45 -46 77 -68 97 -68 11 0 31 -11 44
-25 13 -14 33 -25 46 -25 13 0 29 -9 36 -20 7 -11 18 -20 26 -20 7 0 21 -9 30
-19 10 -11 31 -23 47 -26 16 -4 34 -15 39 -25 5 -10 21 -21 35 -24 14 -4 25
-10 25 -15 0 -5 15 -15 33 -22 17 -7 38 -21 45 -31 7 -10 26 -18 42 -18 19 0
33 -7 40 -19 10 -20 34 -35 100 -67 19 -9 41 -25 48 -35 7 -10 25 -19 39 -19
14 0 36 -10 48 -22 47 -47 77 -68 100 -68 14 0 29 -9 35 -19 5 -11 19 -23 31
-26 24 -8 106 -61 114 -75 3 -5 19 -11 36 -15 16 -4 41 -18 54 -31 13 -13 31
-24 38 -24 8 0 18 -7 21 -16 12 -31 6 -44 -19 -44 -14 0 -34 -11 -47 -25 -13
-15 -32 -25 -48 -25 -16 0 -35 -10 -48 -25 -13 -14 -33 -25 -47 -25 -14 0 -28
-7 -32 -15 -3 -9 -20 -23 -37 -31 -76 -37 -107 -56 -112 -69 -4 -9 -19 -15
-35 -15 -19 0 -37 -9 -51 -25 -12 -14 -32 -25 -44 -25 -13 0 -25 -4 -29 -9
-10 -17 -95 -71 -121 -77 -13 -3 -29 -15 -35 -25 -6 -12 -21 -19 -39 -19 -20
0 -35 -8 -46 -25 -10 -15 -26 -25 -39 -25 -13 0 -34 -9 -47 -20 -68 -57 -88
-70 -107 -70 -12 0 -29 -9 -38 -20 -10 -11 -32 -23 -50 -26 -19 -4 -38 -15
-44 -25 -5 -11 -20 -19 -34 -19 -14 0 -33 -8 -43 -18 -31 -30 -97 -72 -115
-72 -9 0 -24 -11 -33 -25 -11 -17 -26 -25 -44 -25 -15 0 -35 -9 -44 -19 -10
-11 -30 -22 -44 -26 -15 -4 -35 -15 -45 -26 -10 -10 -24 -19 -32 -19 -8 0 -20
-9 -27 -20 -7 -11 -23 -20 -35 -20 -13 0 -33 -11 -45 -25 -13 -15 -32 -25 -48
-25 -16 0 -35 -10 -48 -25 -12 -14 -28 -25 -36 -25 -8 0 -22 -7 -31 -16 -17
-17 -80 -36 -89 -26 -9 8 -7 2248 1 2256 14 13 50 -4 94 -44z m-216 -1080 l0
-1075 -22 -3 c-17 -2 -28 7 -48 38 -14 23 -216 231 -447 463 -454 455 -570
583 -561 618 3 12 207 221 452 465 245 244 475 473 511 509 50 50 71 64 90 63
l25 -3 0 -1075z m2733 -39 c3 -16 -5 -32 -22 -48 -17 -15 -26 -34 -26 -53 0
-19 -7 -33 -19 -40 -19 -10 -35 -33 -65 -96 -8 -17 -22 -36 -30 -43 -9 -7 -18
-28 -22 -47 -3 -19 -15 -39 -25 -45 -12 -6 -19 -21 -19 -38 0 -17 -10 -36 -25
-49 -14 -12 -25 -32 -25 -44 0 -12 -7 -28 -15 -37 -38 -41 -64 -80 -71 -107
-4 -16 -16 -35 -26 -42 -10 -7 -18 -25 -18 -41 0 -20 -8 -34 -25 -45 -17 -11
-25 -26 -25 -44 0 -18 -9 -37 -25 -50 -14 -12 -25 -27 -25 -33 0 -6 -9 -22
-20 -36 -11 -14 -20 -33 -20 -43 0 -9 -9 -25 -20 -35 -11 -10 -20 -26 -20 -37
0 -10 -11 -28 -25 -40 -15 -13 -25 -32 -25 -48 0 -16 -10 -35 -25 -48 -16 -14
-25 -32 -25 -51 0 -16 -6 -31 -15 -34 -8 -4 -22 -21 -30 -39 -42 -86 -50 -98
-59 -95 -6 2 -12 15 -14 30 -2 19 4 30 22 43 24 15 26 22 26 94 0 68 3 79 21
92 18 12 23 27 27 93 4 61 9 83 22 92 15 10 19 31 22 107 2 81 6 97 23 110 16
11 20 29 23 93 3 60 8 82 23 96 15 14 19 32 19 86 0 59 3 72 25 95 22 24 25
36 25 99 0 58 4 76 19 88 11 10 21 37 25 66 6 47 9 51 37 57 18 3 51 6 75 6
32 0 49 6 61 20 15 17 30 20 90 20 58 0 77 4 92 19 26 26 40 30 86 28 34 -2
41 -6 43 -26z m-640 -190 c2 -14 -6 -33 -19 -47 -19 -20 -24 -39 -28 -108 -4
-60 -11 -89 -23 -103 -14 -15 -18 -37 -18 -98 0 -67 -3 -82 -22 -102 -17 -18
-23 -40 -27 -101 -4 -56 -11 -84 -24 -96 -12 -13 -17 -34 -17 -80 0 -50 -5
-69 -22 -91 -17 -22 -23 -46 -28 -111 -3 -58 -10 -87 -22 -101 -14 -15 -18
-37 -18 -96 0 -66 -3 -79 -22 -97 -17 -16 -23 -35 -27 -92 -6 -71 -7 -73 -35
-76 -18 -2 -36 4 -50 16 -16 15 -39 21 -93 24 -57 3 -76 8 -87 23 -11 15 -29
20 -87 23 -54 3 -79 9 -94 23 -14 13 -44 21 -95 25 -49 5 -83 13 -99 26 -17
13 -41 18 -86 18 -48 0 -68 5 -89 21 -19 15 -47 23 -94 27 -44 3 -75 11 -91
23 -18 14 -41 19 -89 19 -53 0 -70 4 -88 21 -18 17 -40 23 -96 26 -42 3 -84
12 -98 21 -14 9 -51 19 -83 23 -32 4 -61 9 -63 12 -10 10 46 55 75 62 16 3 37
15 47 26 9 10 30 19 45 19 19 0 34 8 45 25 10 15 26 25 40 25 13 0 32 9 41 20
10 11 23 20 30 20 7 0 20 9 30 19 10 11 31 23 46 26 16 4 34 16 40 26 7 11 23
19 39 19 18 0 36 10 50 25 12 14 29 25 37 25 9 0 45 20 81 45 36 25 73 45 82
45 10 0 22 8 27 19 6 10 26 22 45 25 20 4 41 15 48 25 7 10 28 22 46 25 17 4
32 12 32 17 0 6 16 17 35 25 19 8 35 19 35 24 0 5 17 14 38 19 20 6 43 20 50
31 8 13 23 20 42 20 18 0 33 7 39 19 6 10 26 22 46 25 19 4 39 15 45 25 5 10
21 22 35 25 14 4 25 10 25 15 0 5 16 15 35 21 19 6 40 20 45 31 7 12 21 19 40
19 16 0 37 9 47 19 10 11 32 23 48 27 17 4 35 14 40 21 12 15 40 33 101 62 23
10 44 26 47 35 4 10 18 16 37 16 19 0 34 7 42 20 16 25 32 21 36 -9z m-2994
-133 c22 -52 76 -109 647 -685 105 -106 195 -193 200 -193 5 0 9 -23 9 -51 0
-47 -3 -54 -45 -96 -33 -32 -45 -53 -45 -73 0 -19 -7 -33 -20 -40 -12 -7 -20
-21 -20 -37 0 -16 -12 -38 -34 -59 -37 -36 -46 -35 -46 8 0 17 -8 33 -20 40
-12 8 -20 24 -20 41 0 17 -10 37 -25 51 -14 13 -25 34 -25 49 0 14 -8 32 -18
39 -18 13 -36 40 -67 106 -9 18 -22 35 -29 38 -8 3 -17 22 -21 42 -4 20 -15
42 -26 50 -11 8 -19 25 -19 42 0 20 -8 35 -25 46 -14 9 -25 26 -25 39 0 21
-20 50 -70 101 -11 12 -20 33 -20 47 0 16 -8 32 -20 39 -12 8 -20 24 -20 40 0
18 -10 36 -25 50 -14 12 -25 30 -25 41 0 18 -28 60 -70 102 -11 12 -20 33 -20
47 0 17 -8 31 -19 37 -12 7 -21 27 -25 56 -6 34 -12 45 -25 45 -12 0 -20 9
-24 27 -10 52 16 59 37 11z m1195 -1039 c17 -14 40 -19 87 -19 52 0 67 -4 83
-21 16 -18 35 -23 95 -27 57 -3 79 -9 92 -23 14 -15 31 -19 90 -19 63 0 75 -3
88 -21 12 -18 28 -23 90 -27 57 -3 79 -9 92 -23 14 -15 31 -19 87 -19 59 0 75
-4 94 -21 15 -15 39 -23 75 -26 71 -6 89 -13 63 -23 -27 -11 -1432 -12 -1439
-1 -3 4 3 16 14 26 11 10 20 30 20 44 0 19 13 38 45 66 33 29 45 47 45 68 0
17 12 40 33 62 l32 35 95 -7 c71 -4 101 -10 119 -24z"/>
</g>
</svg>
